<svg width="183" height="124" viewBox="0 0 183 124" fill="none" xmlns="http://www.w3.org/2000/svg">
<g>
<path d="M105.318 116.154C56.5789 129.179 10.4327 115.044 2.24897 84.5835C-5.93476 54.123 26.9426 18.8711 75.6817 5.84571C124.421 -7.17888 170.566 6.95642 178.75 37.417C186.934 67.8768 154.057 103.129 105.318 116.154Z" fill="#FFE71E"/>
<path d="M12.2364 80.0719C12.4981 78.9719 12.7713 77.0376 12.9483 75.3266L15.2196 54.9515C15.3658 53.7241 15.422 52.0062 15.3335 51.2371L15.3604 51.1903C16.03 51.1695 16.8182 50.9984 17.5232 50.8103C18.3382 50.5923 19.0694 50.3574 19.7336 50.022L19.7813 50.0488C20.0907 50.7581 21.0474 52.2457 21.7424 53.2083L33.6651 69.7907C34.6749 71.1846 35.8463 72.7336 36.6968 73.5358L36.6698 73.5826C36.0103 73.6409 35.0359 73.8605 34.3316 74.0493C33.5535 74.2573 32.8593 74.4822 32.1858 74.7808L32.1381 74.754C31.5008 73.4183 30.9759 72.6477 30.0031 71.2437L28.7732 69.4737C28.3814 68.9041 28.1806 68.6017 27.9781 68.1403C27.5525 68.333 27.1923 68.4696 26.525 68.6477L18.5568 70.777C17.8895 70.9551 17.547 71.0081 17.0444 71.0626C17.046 71.6567 17.0406 71.9353 16.9775 72.5863L16.772 74.78C16.6157 76.5655 16.5372 77.4574 16.6835 78.8844L16.6558 78.9312C15.9592 78.9995 15.2819 79.14 14.4669 79.358C13.7626 79.5468 12.8829 79.8216 12.2826 80.1003L12.2349 80.0734L12.2364 80.0719ZM17.4316 67.4725C17.8941 67.2699 18.2643 67.1709 18.9309 66.9928L24.3792 65.5366C25.0088 65.3685 25.3798 65.2695 25.8808 65.2143L25.9078 65.1674C25.5291 64.7928 25.339 64.5273 24.9472 63.9585L21.981 59.719C20.5702 57.7202 19.3003 55.8012 18.5968 54.365L18.5222 54.385C18.5961 55.99 18.4206 58.2944 18.1912 60.6923L17.6563 65.9458C17.6032 66.6335 17.5339 66.9682 17.3839 67.4449L17.4316 67.4718V67.4725Z" fill="black"/>
<path d="M53.8983 65.611C54.217 66.7947 54.6056 67.7995 55.049 68.7114C54.4171 68.7221 53.7398 68.8626 53.0725 69.0414C52.406 69.2195 51.7479 69.4352 51.1953 69.7415C51.143 68.8042 50.9952 67.814 50.6973 66.7049C50.4603 68.6308 48.7747 70.7839 45.7731 71.5868C40.9558 72.874 36.6573 70.1798 34.8794 63.5639C33.1916 57.2803 35.8969 52.7146 40.8265 51.3974C43.4949 50.6843 45.7916 51.6953 46.9699 53.123C46.6374 52.1819 46.1202 50.6966 45.7223 49.2175L45.0373 46.6675C44.7194 45.4846 44.33 44.4791 43.8867 43.568C44.5563 43.5472 45.2336 43.406 45.937 43.2179L46.0486 43.188C46.7529 42.9999 47.4101 42.785 47.9997 42.4688C48.0736 43.4781 48.2398 44.5436 48.5585 45.7264L53.8999 65.611H53.8983ZM48.9371 60.0053C47.6264 55.1264 44.7025 53.4116 41.8494 54.1738C38.7731 54.9959 37.2076 58.1876 38.399 62.6228C39.7205 67.5385 42.5698 69.2725 45.6084 68.4604C48.647 67.6482 50.1286 64.4405 48.9371 60.0045V60.0053Z" fill="black"/>
<path d="M74.9184 59.9936C75.2355 61.1773 75.625 62.1821 76.0683 63.094C75.4356 63.1047 74.7591 63.2459 74.0918 63.424C73.4253 63.6021 72.7672 63.8178 72.2146 64.1241C72.1623 63.1868 72.0145 62.1974 71.7167 61.0875C71.4796 63.0134 69.7948 65.1665 66.7932 65.9686C61.9751 67.2559 57.6759 64.5624 55.8995 57.9465C54.2116 51.6629 56.9162 47.0972 61.8466 45.78C64.515 45.0669 66.8117 46.0779 67.9892 47.5056C67.6567 46.5645 67.1395 45.0792 66.7416 43.6001L66.0566 41.0501C65.7388 39.8672 65.3493 38.8617 64.9052 37.9506C65.5756 37.9298 66.2521 37.7886 66.9571 37.5998L67.0679 37.5698C67.7722 37.3818 68.4295 37.1668 69.0198 36.8506C69.0929 37.86 69.2599 38.9254 69.5778 40.1083L74.92 59.9929L74.9184 59.9936ZM69.9565 54.3879C68.6457 49.509 65.7218 47.795 62.8687 48.5572C59.7924 49.3793 58.2269 52.5702 59.4191 57.0054C60.7399 61.9211 63.5891 63.6558 66.6269 62.843C69.6663 62.0308 71.1487 58.8231 69.9565 54.3871V54.3879Z" fill="black"/>
<path d="M77.5475 34.5723C77.5852 35.1565 77.7761 36.017 78.0147 36.9035C78.2725 37.8646 78.5088 38.5938 78.7782 39.1557L78.7512 39.2025C78.2771 39.2102 77.5159 39.3353 76.5523 39.5924C75.6626 39.8304 74.8676 40.1213 74.4519 40.3508L74.405 40.324C74.3473 39.6661 74.1656 38.8425 73.9378 37.9928C73.7192 37.1791 73.4729 36.413 73.1743 35.7406L73.2013 35.693C73.6854 35.7222 74.5204 35.5787 75.4094 35.3407C76.373 35.0836 77.0942 34.8111 77.4998 34.5439L77.5475 34.5716V34.5723ZM79.7464 44.6801L83.2614 57.7638C83.5793 58.9474 83.9679 59.9522 84.4113 60.8641C83.7417 60.8848 83.1021 61.0153 82.3979 61.2034C81.6944 61.3914 81.0733 61.5979 80.4837 61.9134C80.4106 60.9032 80.2436 59.8386 79.9257 58.6549L76.4107 45.5712C76.0928 44.3884 75.7042 43.3828 75.2608 42.4717C75.9304 42.451 76.57 42.3189 77.2735 42.1309C77.9785 41.9428 78.5988 41.7379 79.1884 41.4216C79.2615 42.431 79.4285 43.4964 79.7464 44.6793V44.6801Z" fill="black"/>
<path d="M85.2073 50.1933C83.5787 44.1315 86.4272 39.2105 91.8009 37.7743C94.8026 36.9722 97.6734 37.7505 99.5052 39.8361C100.198 40.6405 100.772 41.5969 101.137 42.8067L101.11 42.8543C100.598 42.8719 99.8469 43.0331 99.3651 43.1621C98.8833 43.2903 98.1521 43.5259 97.7003 43.7654L97.6526 43.7378C97.4641 43.0354 97.147 42.4467 96.776 41.9523C95.7977 40.827 94.2454 40.3696 92.5406 40.8255C89.2049 41.7167 87.6517 45.1033 88.7639 49.243C89.886 53.4187 92.6529 55.7307 95.9879 54.8395C98.0259 54.2953 99.1488 53.005 99.3797 51.2003C99.4875 50.4182 99.4274 49.603 99.1888 48.7164L99.2158 48.6688C99.7268 48.6512 100.441 48.5007 100.923 48.3718C101.405 48.2436 102.136 48.0071 102.588 47.7677L102.636 47.7953C102.973 49.0518 103.049 50.2201 102.956 51.3539C102.663 54.4028 100.64 56.9243 96.7852 57.9544C91.5962 59.3415 87.0037 56.8836 85.2065 50.1948L85.2073 50.1933Z" fill="black"/>
<path d="M117.482 52.0263C116.96 52.0071 116.061 52.2074 115.542 52.3464L114.431 52.6434C111.837 53.3366 109.618 52.6227 108.874 49.8502L105.954 38.9841C105.776 38.3185 105.706 38.0599 105.668 37.475L105.621 37.4481C105.179 37.7244 104.994 37.7743 104.03 38.0315C103.178 38.2594 102.494 38.5227 101.903 38.839L101.856 38.8113C101.828 38.264 101.736 37.7728 101.567 37.1457C101.398 36.517 101.242 36.0825 100.992 35.5959L101.019 35.5483C101.689 35.5276 102.413 35.4132 103.265 35.1852C104.192 34.938 104.451 34.8682 104.963 34.8505L104.99 34.803C104.702 34.3255 104.633 34.0668 104.454 33.4013L104.018 31.7755C103.7 30.5927 103.31 29.5871 102.867 28.6752C103.537 28.6545 104.214 28.514 104.918 28.3252L104.955 28.3152C105.659 28.1264 106.317 27.9115 106.906 27.5952C106.98 28.6054 107.146 29.6708 107.464 30.8537L107.901 32.4794C108.08 33.1449 108.149 33.4036 108.187 33.9878L108.235 34.0146C108.787 33.7091 108.974 33.6592 110.122 33.3522C110.974 33.1242 111.696 32.8525 112.286 32.5362L112.334 32.5639C112.361 33.1104 112.444 33.5641 112.612 34.1927C112.781 34.8198 112.947 35.2919 113.197 35.7786L113.17 35.8262C112.501 35.8469 111.74 35.9697 110.887 36.1977C109.627 36.5339 109.405 36.5938 108.893 36.6114L108.866 36.659C109.153 37.1364 109.223 37.3951 109.401 38.0606L112.033 47.8559C112.4 49.2223 113.28 49.5424 114.467 49.2253L114.763 49.1463C115.282 49.0073 116.125 48.7433 116.586 48.5399L116.633 48.5667C116.661 49.1148 116.765 49.7987 116.906 50.3161C117.034 50.7974 117.27 51.5266 117.51 51.9772L117.483 52.0248L117.482 52.0263Z" fill="black"/>
<path d="M118.034 23.7525C118.072 24.3367 118.263 25.1964 118.501 26.0837C118.76 27.0447 118.996 27.774 119.265 28.3358L119.238 28.3827C118.764 28.3903 118.003 28.5155 117.039 28.7726C116.15 29.0106 115.355 29.3015 114.939 29.531L114.892 29.5041C114.834 28.8463 114.652 28.0227 114.424 27.1729C114.206 26.3593 113.96 25.594 113.661 24.9208L113.688 24.8732C114.172 24.9024 115.008 24.7588 115.897 24.5209C116.861 24.2637 117.581 23.9912 117.987 23.7241L118.034 23.7518V23.7525ZM120.233 33.8602L123.748 46.9439C124.066 48.1276 124.455 49.1324 124.898 50.0443C124.23 50.065 123.589 50.1955 122.885 50.3843C122.181 50.5724 121.56 50.7781 120.97 51.0943C120.898 50.0842 120.731 49.0195 120.413 47.8359L116.898 34.7522C116.58 33.5693 116.19 32.5638 115.747 31.6534C116.417 31.6327 117.057 31.5006 117.761 31.3134C118.465 31.1245 119.086 30.9196 119.675 30.6041C119.749 31.6135 119.916 32.6789 120.233 33.8618V33.8602Z" fill="black"/>
<path d="M144.177 41.4857C144.494 42.6693 144.884 43.6741 145.326 44.5853C144.658 44.606 143.98 44.7465 143.276 44.9353C142.572 45.1241 141.915 45.339 141.324 45.6553C141.251 44.6451 141.084 43.5805 140.767 42.3968L138.374 33.4896C137.649 30.79 135.846 29.2525 133.399 29.9065C130.361 30.7186 128.98 33.267 129.675 35.8538L132.058 44.7242C132.376 45.9078 132.765 46.9126 133.208 47.8237C132.539 47.8445 131.861 47.9857 131.157 48.1738C130.454 48.3618 129.796 48.5775 129.205 48.8938C129.133 47.8836 128.966 46.819 128.648 45.6353L125.133 32.5516C124.815 31.3688 124.426 30.3632 123.982 29.4521C124.652 29.4314 125.292 29.3001 125.997 29.112C126.7 28.924 127.321 28.719 127.911 28.4028C127.991 29.2924 128.128 30.245 128.369 31.2897L128.416 31.3173C128.731 30.1237 130.029 27.5592 133.475 26.6381C137.144 25.6578 140.452 27.6267 141.544 31.6912L144.177 41.4857Z" fill="black"/>
<path d="M160.384 19.7249C160.457 20.7343 160.623 21.7997 160.941 22.9826L165.161 38.6914C166.611 44.0869 164.384 47.7721 159.048 49.1983C155.082 50.2576 151.89 49.1699 150.216 46.4879C149.835 45.956 149.555 45.3565 149.349 44.7393L149.375 44.6925C150.046 44.6718 150.722 44.5306 151.316 44.3717C151.798 44.2435 152.529 44.0078 153.018 43.7584L153.066 43.7852C153.133 44.4807 153.44 45.0318 153.876 45.4701C154.823 46.4841 156.532 46.7804 158.459 46.2653C161.72 45.3941 162.787 43.0092 161.884 39.6456L161.635 38.7214C161.507 38.2409 161.377 37.7603 161.323 37.2606L161.286 37.2706C160.843 39.1712 159.419 40.8192 156.787 41.5223C152.118 42.7697 147.644 40.1629 145.935 33.8057C144.127 27.0777 147.381 22.9212 151.717 21.7629C154.014 21.1488 156.232 21.8634 157.551 23.3733C157.247 22.3854 156.897 21.5272 156.529 20.7542C157.163 20.7435 157.84 20.6015 158.506 20.4234C159.173 20.2453 159.831 20.0304 160.384 19.7241V19.7249ZM159.553 30.0875C158.382 25.726 155.66 23.8784 152.881 24.6214C149.806 25.4435 148.454 28.6958 149.527 32.6873C150.62 36.7533 153.112 39.3754 156.374 38.5042C159.894 37.5631 160.676 34.2647 159.554 30.0875H159.553Z" fill="black"/>
<path d="M72.8871 72.5234C72.9325 72.6946 72.9186 72.9164 72.8217 73.235C72.6924 73.7086 72.6754 74.1883 72.8032 74.6665L74.7181 81.7944L79.9856 80.3867C82.781 79.6037 84.9853 78.9413 86.7362 78.3641L87.6437 81.7407C86.2144 82.0124 83.9817 82.572 80.8007 83.4217L75.5339 84.8295L79.0251 97.8265L87.746 95.4961C89.457 95.0386 90.7562 94.6916 91.602 94.4283C92.6533 94.1113 93.4653 93.858 93.9687 93.6861L94.8846 97.0973C93.6939 97.3053 91.5905 97.795 88.6396 98.5465L69.0758 103.775C67.9813 104.068 66.4943 104.538 64.6071 105.152C64.0776 105.366 63.7267 105.423 63.6243 105.452L62.6899 101.972C64.2901 101.655 66.1903 101.22 68.3877 100.67L75.7071 98.7138L69.6307 76.0981L69.6207 76.0643C69.1135 74.4455 68.6825 73.39 68.3315 72.8995C71.0761 72.2025 72.6269 71.97 72.8856 72.5234H72.8871Z" fill="black"/>
<path d="M100.819 77.4513L98.0223 78.6372C97.5182 76.762 97.1365 75.4747 96.8656 74.7424C96.6116 73.9326 96.2206 73.1596 95.7334 72.303L98.5419 71.2959C99.4462 73.9787 100.21 76.0043 100.818 77.4513H100.819ZM114.292 63.4687L120.619 61.7777C122.193 61.3571 123.465 60.9072 124.485 60.3423L125.393 63.7189C124.2 63.7819 122.874 64.026 121.481 64.4359L105.713 68.6492L102.567 69.4905C103.701 73.5734 104.535 76.6775 105 78.8199C105.512 81.1334 105.871 83.1568 106.054 84.7895C106.457 87.79 106.142 91.5298 105.228 95.9051C103.742 94.8757 102.446 94.4182 101.353 94.3077C103.012 90.7936 103.529 86.8536 102.829 82.4713C101.468 83.8216 100.302 84.9369 99.3708 85.6983C99.173 84.6912 98.5372 83.6903 97.4982 82.6886C99.1445 81.9931 100.718 81.0244 102.225 79.8162L100.127 72.0052C99.5309 69.7876 99.0067 68.247 98.4426 67.3735C100.003 67.1762 101.364 66.9221 102.562 66.6028L109.744 64.683L110.976 64.3538C111.033 64.3865 111.076 64.4118 111.106 64.4297L110.996 64.5679C110.244 63.818 109.562 63.0496 108.913 62.2728L112.17 60.3423C112.734 61.215 113.413 62.2406 114.293 63.4679L114.292 63.4687ZM106.878 70.5298L109.204 69.9081C110.23 69.6348 111.212 69.3355 112.202 68.9248C111.938 71.0802 111.755 73.9441 111.599 77.4582C116.378 81.7383 116.503 85.0681 111.928 87.2788C111.539 86.1028 110.99 85.1518 110.258 84.4709L110.389 84.1432C112.015 84.3297 112.677 83.7878 112.533 82.4368C112.229 81.1657 111.091 79.9337 109.059 78.6472C109.214 76.633 109.285 74.7132 109.303 72.7336C109.291 72.554 109.28 72.3736 109.286 72.2631L106.961 72.8848L110.554 86.2556C111.406 89.4288 112.123 91.6863 112.754 92.9429L109.436 93.8295C109.249 91.9051 108.799 89.686 108.13 87.1951L104.62 74.1306C104.198 72.5617 103.811 71.5316 103.476 70.9635C104.199 71.0626 105.33 70.9067 106.878 70.5291V70.5298ZM118.551 66.4977C118.598 66.6681 118.531 66.8323 118.338 67.0657C118.06 67.3965 117.826 67.7519 117.669 68.1227L121.123 67.2C122.115 66.9344 123.234 66.599 124.429 66.133C123.513 68.3153 122.948 70.0378 122.728 71.2667L124.131 70.8921C125.02 70.6542 125.78 70.3425 126.486 69.971C126.464 70.7087 126.648 71.9384 127.107 73.644L127.867 76.4749C128.289 78.0438 128.746 79.2014 129.136 79.9744C128.099 80.0688 126.85 80.3298 125.345 80.732L120.248 82.0929C118.915 82.4499 118.026 82.687 117.59 82.8406C116.881 83.067 116.42 83.262 116.191 83.361L115.485 80.7343C116.318 80.6936 117.704 80.3981 119.585 79.8945L125.365 78.3493L124.998 76.9846L118.808 78.6387C117.474 78.9957 116.397 79.3564 115.657 79.7372L114.951 77.1112C115.911 76.9999 116.981 76.7512 118.143 76.4411L124.402 74.7677L124.035 73.4037L118.598 74.8576C116.99 75.2874 115.88 75.6566 115.276 76.0013L114.909 74.6365C114.892 74.6651 114.876 74.6938 114.859 74.7225C114.735 74.9389 114.568 75.2767 114.345 75.8109C113.59 75.3173 112.821 75.0487 112.063 74.9581C111.951 74.952 111.83 74.9113 111.753 74.8952L111.714 74.6135C113.814 71.7856 114.885 69.0868 115.046 66.4109C117.369 66.1921 118.519 66.1039 118.551 66.4977ZM118.232 85.7759C118.217 85.8534 118.21 85.9655 118.11 86.1374C117.9 86.4498 117.709 86.8305 117.673 87.2412C117.637 87.6526 117.43 89.0612 117.031 91.3985L116.741 91.5482C116.735 91.5252 116.72 91.5167 116.697 91.5229C116.653 91.4991 116.611 91.4745 116.568 91.4484C115.833 91.1698 115.007 91.0976 114.175 91.1375C114.792 89.0711 115.078 87.1307 115.056 85.2715C117.228 85.313 118.219 85.4496 118.233 85.7751L118.232 85.7759ZM116.472 71.0388C116.118 71.9008 115.819 72.5647 115.562 73.1082C116.274 73.0284 117.035 72.8618 117.924 72.6238L119.6 72.1763C119.707 71.8916 119.847 71.5976 119.989 71.3043C120.096 71.0196 120.246 70.7601 120.354 70.4761C120.52 70.1391 120.601 69.8973 120.667 69.7338L116.563 70.8307C116.538 70.8737 116.522 70.9505 116.472 71.0388ZM121.224 84.3558C121.337 84.5078 121.384 84.6782 121.285 84.9967C121.181 85.4274 121.181 85.9747 121.356 86.6233C121.578 87.5874 121.81 88.0387 122.042 88.0856C122.2 88.2621 122.706 88.236 123.69 87.9382C124.759 87.6887 125.27 87.407 125.341 87.1307C125.579 86.9203 125.573 86.0814 125.272 84.5538C126.142 85.1986 127.178 85.5064 128.532 85.3644C128.784 88.0748 127.908 89.5893 125.913 89.9401L123.075 90.6985C121.749 91.0884 120.814 91.1552 120.337 90.8804C119.81 90.6923 119.437 89.9884 119.161 88.8186L118.721 87.1813C118.427 86.0898 118.105 85.2984 117.806 84.8663C119.105 84.5193 120.262 84.3197 121.224 84.355L121.224 84.3558ZM125.01 84.8064L122.534 86.2349C122.498 86.099 122.384 85.947 122.242 85.6914C122.199 85.6669 122.172 85.5648 122.119 85.5049C121.491 84.3942 120.963 83.6581 120.492 83.2712L122.849 81.9471C123.553 82.9281 124.248 83.8768 125.011 84.8064H125.01ZM132.602 85.7759L130.148 87.4193C128.592 85.3122 127.341 83.9282 126.253 83.1583L128.254 81.6009C129.69 82.7154 131.123 84.0871 132.602 85.7759Z" fill="black"/>
</g>
</svg>
