<svg width="258.75" height="261.75" viewBox="0 0 345 349" fill="none" xmlns="http://www.w3.org/2000/svg">
<g>
<path d="M163.367 59.4894L122.793 33.0616L107.999 79.8045L59.71 77.5088L69.871 125.366L26.8398 147.905L59.2543 184.085L32.978 225.353L79.0127 240.112L76.5018 289.076L123.764 278.53L145.78 322.038L181.634 288.993L222.21 315.421L237.003 268.68L285.292 270.974L275.131 223.117L318.164 200.577L285.748 164.398L312.023 123.131L265.991 108.371L268.501 59.4084L221.238 69.9527L199.224 26.4459L163.367 59.4894Z" fill="#AB9BFF"/>
<path d="M124.975 140.932L122.494 154.657C122.076 156.968 121.925 159.03 121.947 160.974C120.774 160.462 119.488 160.155 118.116 159.907L117.755 159.842C116.384 159.594 115.073 159.431 113.793 159.499C114.494 157.686 115.076 155.703 115.494 153.391L118.014 139.45L107.992 112.872C107.145 110.556 105.587 107.215 104.438 104.919L104.523 104.86C105.625 105.358 107.704 105.808 109.076 106.056C110.591 106.33 112.768 106.649 114.192 106.608L114.251 106.693C114.16 108.841 114.831 110.901 116.007 113.873L119.524 123.685C120.838 127.13 122.403 131.664 122.772 133.745L122.916 133.771C123.918 131.938 127.116 128.265 129.553 125.498L136.572 117.592C138.642 115.206 140.063 113.524 140.804 111.494L140.888 111.435C142.207 111.972 143.926 112.357 145.513 112.644C146.884 112.892 148.845 113.172 150.052 113.092L150.111 113.177C148.158 114.912 145.602 117.509 143.924 119.369L124.975 140.932Z" fill="black"/>
<path d="M172.165 163.637C171.748 165.949 171.598 168.01 171.62 169.955C170.445 169.443 169.159 169.136 167.788 168.888C166.417 168.64 165.106 168.477 163.826 168.546C164.402 167.008 164.931 165.315 165.357 163.377C163.194 166.268 159.294 168.472 153.882 167.494C146.235 166.111 141.744 160.451 143.168 152.578L146.773 132.64C147.191 130.329 147.34 128.268 147.319 126.324C148.493 126.835 149.779 127.143 151.15 127.39L151.439 127.443C152.81 127.691 154.122 127.853 155.402 127.786C154.701 129.599 154.119 131.582 153.701 133.893L150.292 152.747C149.352 157.948 151.623 161.043 156.313 161.891C161.652 162.856 165.938 159.753 166.957 154.119L170.078 136.854C170.496 134.543 170.646 132.482 170.625 130.538C171.798 131.049 173.084 131.356 174.455 131.604L174.528 131.617C175.899 131.865 177.21 132.027 178.49 131.96C177.789 133.774 177.207 135.757 176.79 138.068L172.166 163.639L172.165 163.637Z" fill="black"/>
<path d="M227.429 173.629L230.759 155.21C231.673 150.153 229.768 146.676 225.44 145.893C220.533 145.006 216.07 147.854 214.973 153.922L211.917 170.825C211.499 173.136 211.349 175.198 211.37 177.142C210.197 176.63 208.91 176.323 207.612 176.089C206.241 175.841 204.93 175.678 203.65 175.746C204.351 173.932 204.933 171.949 205.351 169.637L208.772 150.712C209.647 145.872 207.992 142.664 203.303 141.816C198.541 140.955 193.952 144.078 192.829 150.291L189.838 166.833C189.42 169.144 189.27 171.206 189.292 173.15C188.118 172.638 186.832 172.331 185.461 172.083C184.089 171.835 182.778 171.673 181.499 171.741C182.199 169.927 182.781 167.944 183.199 165.632L187.822 140.061C188.24 137.75 188.39 135.689 188.369 133.745C189.542 134.256 190.757 134.55 192.127 134.798C193.497 135.046 194.738 135.195 196.016 135.128C195.329 136.869 194.773 138.707 194.381 140.874L194.453 140.887C197.527 137.489 201.446 135.588 206.858 136.566C211.548 137.414 214.704 140.969 215.24 145.018L215.384 145.045C218.129 141.811 222.731 139.436 228.359 140.454C234.925 141.641 239.021 147.006 237.624 154.735L233.993 174.816C233.575 177.128 233.425 179.189 233.447 181.133C232.273 180.621 230.986 180.315 229.688 180.08C228.317 179.832 227.006 179.669 225.727 179.737C226.427 177.924 227.009 175.94 227.427 173.629L227.429 173.629Z" fill="black"/>
<path d="M248.052 168.333C248.294 167.406 248.457 166.094 248.62 164.78L251.467 139.558C251.799 136.486 252.007 133.689 251.867 131.575L251.953 131.516C252.634 131.863 254.412 132.333 256.865 132.777C258.958 133.155 260.788 133.338 261.838 133.303L261.897 133.388C261.098 135.332 260.24 138.012 259.476 141.006L253.383 165.641C253.076 166.929 252.768 168.215 252.671 169.168L252.585 169.227C252.165 169.076 251.458 168.873 250.375 168.678C249.293 168.482 248.486 168.411 248.113 168.418L248.054 168.333L248.052 168.333ZM243.485 182.873C243.923 181.685 244.258 180.253 244.532 178.736C244.82 177.147 244.995 175.762 245.013 174.423L245.099 174.364C245.925 174.737 247.487 175.168 249.074 175.455C250.95 175.794 252.418 175.912 253.324 175.851L253.383 175.936C252.911 176.895 252.565 178.398 252.252 180.132C251.951 181.793 251.749 183.323 251.855 184.386L251.77 184.446C250.943 184.073 249.526 183.667 247.651 183.328C246.063 183.041 244.449 182.898 243.545 182.959L243.485 182.873Z" fill="black"/>
<path d="M123.79 173.596L123.819 173.8C123.796 173.93 123.609 174.227 123.131 174.672C122.401 175.403 121.975 175.925 121.678 176.468C121.628 176.503 121.595 176.564 121.58 176.65C121.568 176.714 121.48 176.831 121.469 176.895C119.906 180.398 118.753 183.112 118.06 185.112L122.748 185.959C124.74 186.32 126.153 186.575 126.935 186.65C127.975 186.773 129.113 186.712 130.369 186.739C126.868 197.662 123.231 206.768 119.431 213.85C119.6 214.014 119.769 214.176 119.991 214.416C120.33 214.743 120.721 215.146 121.231 215.637C124.684 218.918 126.799 221.159 127.507 222.017L122.331 226.063C120.829 223.732 118.748 221.297 116.113 218.629C112.157 222.894 106.876 226.057 100.116 228.222C99.3439 225.891 97.9343 223.777 95.8902 221.879C102.82 221.34 108.219 218.994 112.261 214.612C110.608 213.118 107.459 210.356 102.739 206.382C105.06 203.083 107.736 197.456 110.841 189.451L110.199 189.335C107.565 188.859 105.153 188.622 103.005 188.765L104.226 182.013C106.083 182.747 108.489 183.381 111.573 183.939L112.729 184.148C114.896 177.301 116.17 172.816 116.489 170.683C120.981 171.892 123.405 172.796 123.791 173.596L123.79 173.596ZM113.689 196.076C111.988 200.351 110.7 203.439 109.773 205.263C110.462 205.852 111.788 206.956 113.57 208.473C114.389 209.086 115.026 209.599 115.376 209.863C118.011 204.826 120.435 198.757 122.532 191.565L116.044 190.392C115.479 191.684 114.668 193.596 113.689 196.076ZM148.554 196.602L147.414 202.904L151.268 203.601C155.444 204.356 158.434 204.697 160.495 204.672L159.262 211.489C156.698 210.627 153.714 209.888 150.373 209.284L146.392 208.564L142.438 230.43C141.548 234.254 137.379 235.293 130.372 233.694C130.785 231.045 130.134 228.405 128.228 225.736L128.654 225.215C134.577 227.68 137.233 227.297 137.348 224.462L140.394 207.613L135.833 206.788C132.043 206.103 128.603 205.68 125.579 205.532L126.835 198.587C128.372 199.263 131.741 200.072 137.008 201.024L141.441 201.825L142.767 194.495L142.877 194.249C142.952 194.197 143.244 194.05 143.536 193.904C146.881 191.919 150.247 189.804 153.638 187.562L139.635 185.03C135.203 184.229 132.33 183.975 131.051 184.076L132.156 177.967C133.395 178.456 134.592 178.805 135.737 179.078C136.818 179.339 138.348 179.683 140.403 180.055L153.957 182.506C158.004 183.237 161.017 183.45 163.112 183.231L161.868 190.112C160.221 189.681 155.792 191.803 148.555 196.604L148.554 196.602Z" fill="black"/>
<path d="M218.035 191.698C218.567 192.059 218.655 192.673 217.535 193.002C216.682 193.312 216.151 193.681 215.954 194.044C215.679 194.459 215.09 195.15 214.314 196.138C213.264 197.542 212.477 198.595 211.713 199.519L226.358 202.167C229.057 202.655 231.252 202.986 232.776 202.996L231.718 208.847C230.416 208.346 228.372 207.91 225.417 207.376L207.817 204.194C204.189 208.12 200.892 211.309 197.98 213.837C197.278 212.581 196.285 211.472 195.041 210.649L192.355 225.505C191.716 229.043 191.326 231.561 191.328 233.023L185.097 231.897C185.598 230.593 185.965 228.933 186.372 226.682L177.572 225.091L177.282 226.699C176.642 230.236 176.263 232.692 176.231 234.346L170.064 233.231C170.564 231.927 171.083 229.43 171.781 225.572L177.06 196.376C177.501 193.933 177.809 191.863 177.855 190.144C179.415 190.692 181.714 191.175 184.605 191.698L191.736 192.987C194.369 193.463 196.629 193.805 198.538 193.884C198.073 194.995 197.81 196.077 197.56 197.094C197.368 197.791 197.17 198.884 196.926 200.234L195.554 207.824C203.642 201.249 208.734 194.732 210.865 188.078C214.598 189.816 216.963 191.04 218.039 191.699L218.035 191.698ZM187.44 221.496L191.614 198.409L182.685 196.795L178.511 219.882L187.44 221.496ZM209.212 212.615L216.856 213.997C219.04 214.391 221.557 214.781 224.354 215.087L223.296 220.939C220.99 220.855 219.139 221.184 217.592 222.033C211.137 226.179 205.817 231.394 201.618 237.741C201.058 239.366 203.938 240.684 210.898 241.809C214.66 242.289 217.193 242.217 218.384 241.502C219.674 240.606 220.606 238.385 221.216 234.642C222.888 237.136 224.84 238.817 227.176 239.837C225.545 244.457 223.673 247.106 221.443 247.7C219.411 248.66 215.184 248.56 208.966 247.37C203.248 246.336 199.295 245.09 197.221 243.719C195.136 242.412 194.445 240.361 195.009 237.607C197.58 231.098 203.699 224.766 213.27 218.793L208.388 217.911C206.847 217.632 204.908 217.347 202.636 217.07C201.533 216.936 200.89 216.82 200.569 216.762L200.306 216.382L201.306 210.851C202.801 211.387 205.423 211.927 209.214 212.613L209.212 212.615Z" fill="black"/>
</g>
</svg>